<?xml version="1.0" encoding="UTF-8" standalone="no"?>
<!-- Uploaded to: SVG Repo, www.svgrepo.com, Generator: SVG Repo Mixer Tools -->

<svg
   width="800px"
   height="800px"
   viewBox="0 0 48 48"
   id="Layer_2"
   data-name="Layer 2"
   version="1.1"
   sodipodi:docname="catch.svg"
   inkscape:version="1.3.2 (091e20ef0f, 2023-11-25, custom)"
   xmlns:inkscape="http://www.inkscape.org/namespaces/inkscape"
   xmlns:sodipodi="http://sodipodi.sourceforge.net/DTD/sodipodi-0.dtd"
   xmlns="http://www.w3.org/2000/svg"
   xmlns:svg="http://www.w3.org/2000/svg">
  <sodipodi:namedview
     id="namedview1"
     pagecolor="#ffffff"
     bordercolor="#000000"
     borderopacity="0.25"
     inkscape:showpageshadow="2"
     inkscape:pageopacity="0.0"
     inkscape:pagecheckerboard="0"
     inkscape:deskcolor="#d1d1d1"
     showguides="true"
     inkscape:zoom="0.59"
     inkscape:cx="720.33898"
     inkscape:cy="240.67797"
     inkscape:window-width="1920"
     inkscape:window-height="1132"
     inkscape:window-x="0"
     inkscape:window-y="32"
     inkscape:window-maximized="1"
     inkscape:current-layer="Layer_2" />
  <defs
     id="defs1">
    <inkscape:path-effect
       effect="bspline"
       id="path-effect2"
       is_visible="true"
       lpeversion="1.3"
       weight="33.333333"
       steps="2"
       helper_size="0"
       apply_no_weight="true"
       apply_with_weight="true"
       only_selected="false"
       uniform="false" />
    <style
       id="style1">.cls-1{fill:none;stroke:#000000;stroke-linecap:round;stroke-linejoin:round;}</style>
  </defs>
  <g
     id="g3"
     transform="matrix(0.07414419,0,0,0.07414419,5.0190874,5.0190691)"
     style="stroke-width:13.4875032;stroke-dasharray:none">
	<g
   id="g2"
   style="stroke-width:13.4875032;stroke-dasharray:none">
		<path
   d="m 119.875,302.399 c -42.306,0 -76.72,34.414 -76.72,76.72 0,42.306 34.414,76.72 76.72,76.72 42.306,0 76.72,-34.414 76.72,-76.72 0,-42.306 -34.414,-76.72 -76.72,-76.72 z m 0,136.391 c -32.899,0 -59.671,-26.772 -59.671,-59.671 0,-32.899 26.772,-59.671 59.671,-59.671 32.899,0 59.671,26.772 59.671,59.671 0,32.899 -26.772,59.671 -59.671,59.671 z"
   id="path1"
   style="stroke-width:13.4875032;stroke-dasharray:none" />

	</g>

</g>
  <g
     id="g5"
     transform="matrix(0.07414419,0,0,0.07414419,5.0190874,5.0190691)"
     style="stroke-width:13.4875032;stroke-dasharray:none">
	<g
   id="g4"
   style="stroke-width:13.4875032;stroke-dasharray:none">
		<path
   d="m 392.658,148.959 c -42.306,0 -76.72,34.414 -76.72,76.72 0,42.306 34.414,76.72 76.72,76.72 42.306,0 76.72,-34.414 76.72,-76.72 0,-42.306 -34.414,-76.72 -76.72,-76.72 z m 0,136.391 c -32.899,0 -59.671,-26.772 -59.671,-59.671 0,-32.899 26.772,-59.671 59.671,-59.671 32.899,0 59.671,26.772 59.671,59.671 0,32.899 -26.772,59.671 -59.671,59.671 z"
   id="path2"
   style="stroke-width:13.4875032;stroke-dasharray:none" />

	</g>

</g>
  <g
     id="g7"
     transform="matrix(0.07414419,0,0,0.07414419,5.0190874,5.0190691)"
     style="stroke-width:13.4875032;stroke-dasharray:none">
	<g
   id="g6"
   style="stroke-width:13.4875032;stroke-dasharray:none">
		<path
   d="m 392.658,106.337 c -13.759,0 -26.926,2.46 -39.236,6.762 l -10.527,-15.79 c 0.135,-0.131 0.298,-0.221 0.431,-0.354 6.435,-6.427 9.981,-14.984 9.981,-24.1 0.008,-9.116 -3.538,-17.682 -9.981,-24.125 L 319.218,24.622 C 307.23,12.651 288.554,11.573 275.251,21.153 c -27.888,-13.13 -50.614,-6.262 -60.71,-1.64 -13.074,-7.744 -30.216,-6.117 -41.455,5.109 l -24.1,24.108 c -10.91,10.909 -12.714,27.367 -5.725,40.293 l -28.383,34.814 c -16.681,2.212 -30.167,16.368 -30.167,33.646 v 34.098 c 0,15.844 12.787,29.076 25.573,32.887 v 35.74 C 48.483,264.609 0,316.189 0,379.119 c 0,65.806 53.802,119.342 119.609,119.342 65.807,0 118.943,-53.536 118.943,-119.342 0,-62.93 -47.284,-114.51 -111.217,-118.912 v -35.74 c 14.918,-3.81 25.573,-17.043 25.573,-32.887 v -34.098 c 0,-13.444 -7.351,-24.982 -18.678,-30.531 l 20.495,-25.284 c 5.521,3.465 11.933,5.259 18.237,5.259 8.732,-0.008 17.532,-3.33 24.175,-9.973 l 24.141,-24.108 c 10.822,-10.822 12.695,-27.114 5.898,-39.992 8.081,-2.522 21.132,-4.289 36.872,1.952 -1.942,4.329 -3.032,9.024 -3.032,13.915 -0.008,9.116 3.54,17.682 9.983,24.125 l 24.108,23.808 c 6.427,6.427 14.986,9.682 24.094,9.682 0.008,0 0.017,0 0.025,0 3.012,0 5.917,-0.223 8.749,-0.974 l 9.526,14.437 c -38.096,19.956 -64.185,59.898 -64.185,105.804 0,65.807 53.536,119.38 119.342,119.38 C 458.464,344.982 512,291.467 512,225.66 512,159.854 458.464,106.337 392.658,106.337 Z M 222.169,379.119 c 0,56.408 -45.885,102.293 -102.293,102.293 -56.408,0 -102.293,-45.885 -102.293,-102.293 0,-56.408 45.886,-102.293 102.293,-102.293 56.407,0 102.293,45.885 102.293,102.293 z M 135.858,157.483 v 34.098 c 0,9.399 -7.65,17.049 -17.049,17.049 -9.399,0 -17.049,-7.65 -17.049,-17.049 v -34.098 c 0,-9.399 7.65,-17.049 17.049,-17.049 9.399,0 17.049,7.651 17.049,17.049 z M 209.257,60.792 185.149,84.9 c -6.512,6.502 -16.987,6.581 -23.665,0.366 -0.529,-0.989 -1.253,-1.892 -2.183,-2.639 -0.065,-0.05 -0.144,-0.058 -0.208,-0.108 -4.591,-6.641 -3.962,-15.825 1.948,-21.736 l 24.1,-24.108 c 3.322,-3.322 7.692,-4.986 12.063,-4.986 3.638,0 7.246,1.228 10.283,3.54 0.593,0.649 1.209,1.238 1.946,1.663 6.453,6.666 6.409,17.316 -0.176,23.9 z m 122.015,23.807 c -3.213,3.213 -7.492,4.689 -12.046,4.689 -0.008,0 -0.008,0 -0.008,0 -4.562,0 -8.841,-1.473 -12.054,-4.687 L 283.056,60.643 c -3.222,-3.222 -4.986,-7.426 -4.986,-11.988 0,-4.562 1.773,-8.803 4.986,-12.017 3.322,-3.322 7.684,-4.959 12.054,-4.959 4.362,0 8.732,1.667 12.054,4.989 l 24.108,24.112 c 3.222,3.222 4.987,7.503 4.987,12.065 -0.001,4.561 -1.774,8.54 -4.987,11.754 z m 61.386,243.373 c -56.408,0 -102.293,-45.885 -102.293,-102.293 0,-56.408 45.886,-102.293 102.293,-102.293 56.408,0 102.293,45.886 102.293,102.293 0,56.408 -45.885,102.293 -102.293,102.293 z"
   id="path4"
   style="stroke-width:13.4875032;stroke-dasharray:none" />

	</g>

</g>
</svg>
